# xmcd
#
# Track frame offsets: 
#        150
#        16246
#        26140
#        39256
#        52756
#        69059
#        91472
#        108114
#        127739
#        144551
#        156431
#
# Disc length: 2298 seconds
#
# Revision: 0
# Processed by: cddbd v1.5.2PL0 Copyright (c) Steve Scherf et al.
# Submitted via: ExactAudioCopy v0.95b3
#
DISCID=7d08f80b
DTITLE=Shawn Johnson - The Prelude
DYEAR=1900
DGENRE=Country
TTITLE0=Forever And Ever, Amen
TTITLE1=He'll Have To Go
TTITLE2=Hey Good Lookin'
TTITLE3=A Fire I Can't Put Out
TTITLE4=Jack Daniel's, If You Please
TTITLE5=That Ol' Wind
TTITLE6=Deeper Than The Holler
TTITLE7=Don't Close Your Eyes
TTITLE8=Midnight In Montgomery
TTITLE9=Welcome To My World
TTITLE10=The Chill Of An Early Fall
EXTD=
EXTT0=
EXTT1=
EXTT2=
EXTT3=
EXTT4=
EXTT5=
EXTT6=
EXTT7=
EXTT8=
EXTT9=
EXTT10=
PLAYORDER=
